<svg width="402" height="402" viewBox="0 0 402 402" fill="none" xmlns="http://www.w3.org/2000/svg">
<path d="M305.958 0H97.2934C45.6747 0 0 41.65 0 92.2471V306.051C0 356.648 39.1051 400.457 91.9751 402L95.7292 401.691H305.332L314.717 401.383C364.459 399.84 399.81 364.361 402 315.307V306.051V92.2471C401.687 44.1182 357.577 0 305.958 0Z" fill="#FF6200"/>
<path d="M205 58.5C223.426 58.5 238.5 73.5557 238.5 92.2979C238.5 111.04 223.426 126.096 205 126.096C186.574 126.096 171.5 111.04 171.5 92.2979C171.5 73.5557 186.574 58.5 205 58.5Z" fill="black" stroke="black" stroke-width="25"/>
<path d="M205 276.904C223.426 276.904 238.5 291.96 238.5 310.702C238.5 329.444 223.426 344.5 205 344.5C186.574 344.5 171.5 329.444 171.5 310.702C171.5 291.96 186.574 276.904 205 276.904Z" fill="black" stroke="black" stroke-width="25"/>
<path d="M310 168.206C328.426 168.206 343.5 183.261 343.5 202.003C343.5 220.745 328.426 235.801 310 235.801C291.574 235.801 276.5 220.745 276.5 202.003C276.5 183.261 291.574 168.206 310 168.206Z" fill="black" stroke="black" stroke-width="25"/>
<path d="M91 168.206C109.426 168.206 124.5 183.261 124.5 202.003C124.5 220.745 109.426 235.801 91 235.801C72.5744 235.801 57.5001 220.745 57.5 202.003C57.5 183.261 72.5744 168.206 91 168.206Z" fill="black" stroke="black" stroke-width="25"/>
<line x1="106.668" y1="182.682" x2="191.668" y2="106.682" stroke="black" stroke-width="25"/>
<line y1="-12.5" x2="136.004" y2="-12.5" transform="matrix(0.999973 -0.00740033 0.00730546 0.999973 132 217.1)" stroke="black" stroke-width="25"/>
<line y1="-12.5" x2="71.6574" y2="-12.5" transform="matrix(0.697765 -0.716327 0.711811 0.702371 241 290.573)" stroke="black" stroke-width="25"/>
</svg>
